<?xml version="1.0" encoding="utf-8"?>
<!-- Generator: Adobe Illustrator 22.0.1, SVG Export Plug-In . SVG Version: 6.00 Build 0)  -->
<svg version="1.1" id="Capa_1" xmlns="http://www.w3.org/2000/svg" xmlns:xlink="http://www.w3.org/1999/xlink" x="0px" y="0px"
	 viewBox="0 0 841.9 595.3" style="enable-background:new 0 0 841.9 595.3;" xml:space="preserve">
<style type="text/css">
	.st0{fill:#4A72B2;}
	.st1{fill:#001D7E;}
</style>
<g>
	<path class="st0" d="M425.4,298.1c0,1,0,2,0,3.1c0,0.2,0,0.3,0,0.5c-0.1,0.5-0.4,0.8-1,0.8c-1.2,0-2.4,0-3.6,0c-1.2,0-2.3,0-3.5,0
		c-0.7,0-1.1-0.3-1.1-1c0-1.1,0-2.2,0-3.3c0-0.6,0.4-1,0.9-1c0.5,0,0.9,0.4,0.9,1c0,0.8,0,1.6,0,2.4c0,0.3,0.1,0.4,0.3,0.4
		c1.6,0,3.2,0,4.8,0c0.3,0,0.3-0.1,0.3-0.3c0-0.8,0-1.6,0-2.5c0-0.5,0.3-0.8,0.8-0.9c0.4-0.1,0.8,0.2,1,0.6
		C425.4,297.8,425.4,297.9,425.4,298.1z"/>
	<path class="st0" d="M424.4,294.3c0,0.8,0,1.5,0,2.3c-0.9,0.2-1.3,0.8-1.2,1.7c-1.5,0-3.1,0-4.6,0c0-0.9-0.3-1.5-1.2-1.7
		c0-0.8,0-1.6,0-2.3c0-0.5,0.5-0.9,1-0.9c1.7,0,3.4,0,5,0C424,293.3,424.4,293.7,424.4,294.3z"/>
	<path class="st0" d="M423.2,298.7c0,0.5,0,1,0,1.6c-1.5,0-3.1,0-4.6,0c0-0.5,0-1,0-1.6C420.1,298.7,421.6,298.7,423.2,298.7z"/>
	<path class="st1" d="M425.9,297.9c0-0.7-0.4-1.1-1-1.3c0-0.7,0-1.4,0-2.1c0-0.6-0.2-1.1-0.7-1.4c-0.2-0.1-0.5-0.2-0.7-0.3
		c-1.7,0-3.5,0-5.2,0c-0.1,0-0.3,0.1-0.4,0.1c-0.6,0.2-0.9,0.7-0.9,1.4c0,0.8,0,1.5,0,2.2c-0.3,0.2-0.5,0.3-0.7,0.5
		c-0.3,0.3-0.3,0.6-0.3,0.9c0,1,0,2.1,0,3.1c0,0.8,0.2,1.4,1.2,1.6l7.7,0c0,0,0,0,0.1,0c0.6-0.1,1-0.6,1-1.2
		C425.9,300.4,425.9,299.2,425.9,297.9z M417.4,294.2c0-0.5,0.5-0.9,1-0.9c1.7,0,3.4,0,5,0c0.6,0,1,0.4,1,1c0,0.8,0,1.5,0,2.3
		c-0.9,0.2-1.3,0.8-1.2,1.7c-1.5,0-3.1,0-4.6,0c0-0.9-0.3-1.5-1.2-1.7C417.4,295.8,417.3,295,417.4,294.2z M423.2,298.7
		c0,0.5,0,1,0,1.6c-1.5,0-3.1,0-4.6,0c0-0.5,0-1,0-1.6C420.1,298.7,421.6,298.7,423.2,298.7z M425.4,301.2c0,0.2,0,0.3,0,0.5
		c-0.1,0.5-0.4,0.8-1,0.8c-1.2,0-2.4,0-3.6,0c-1.2,0-2.3,0-3.5,0c-0.7,0-1.1-0.3-1.1-1c0-1.1,0-2.2,0-3.3c0-0.6,0.4-1,0.9-1
		c0.5,0,0.9,0.4,0.9,1c0,0.8,0,1.6,0,2.4c0,0.3,0.1,0.4,0.3,0.4c1.6,0,3.2,0,4.8,0c0.3,0,0.3-0.1,0.3-0.3c0-0.8,0-1.6,0-2.5
		c0-0.5,0.3-0.8,0.8-0.9c0.4-0.1,0.8,0.2,1,0.6c0,0.1,0.1,0.3,0.1,0.5C425.5,299.1,425.5,300.2,425.4,301.2z"/>
</g>
</svg>
